<mxfile host="65bd71144e">
    <diagram id="gYplu0gBrDNn6FZVZYES" name="Page-1">
        <mxGraphModel dx="667" dy="566" grid="1" gridSize="10" guides="1" tooltips="1" connect="1" arrows="1" fold="1" page="1" pageScale="1" pageWidth="827" pageHeight="1169" math="0" shadow="1">
            <root>
                <mxCell id="0"/>
                <mxCell id="1" parent="0"/>
                <mxCell id="9" value="" style="edgeStyle=none;html=1;fontSize=16;strokeColor=#FF66B3;" parent="1" source="2" target="3" edge="1">
                    <mxGeometry relative="1" as="geometry"/>
                </mxCell>
                <mxCell id="2" value="&lt;font style=&quot;font-size: 16px;&quot;&gt;Start&lt;/font&gt;" style="html=1;dashed=0;whitespace=wrap;shape=mxgraph.dfd.start;fillColor=#f5f5f5;fontColor=#333333;strokeColor=#666666;fontSize=16;" parent="1" vertex="1">
                    <mxGeometry x="380" y="49" width="80" height="30" as="geometry"/>
                </mxCell>
                <mxCell id="10" value="" style="edgeStyle=none;html=1;fontSize=16;entryX=0.5;entryY=0;entryDx=0;entryDy=0;strokeColor=#FF66B3;" parent="1" source="3" target="21" edge="1">
                    <mxGeometry relative="1" as="geometry">
                        <mxPoint x="414.252583237658" y="231.1836969001148" as="targetPoint"/>
                    </mxGeometry>
                </mxCell>
                <mxCell id="3" value="&lt;span class=&quot;nodeLabel&quot; style=&quot;font-size: 16px;&quot;&gt;Administrator gets customer subscription detail from customer journal. &lt;br style=&quot;font-size: 16px;&quot;&gt; Customer details - Fullname, Address, Phone Number, &lt;br style=&quot;font-size: 16px;&quot;&gt;Milk or other products, Subscription and Quantity&lt;/span&gt;" style="html=1;dashed=0;whitespace=wrap;fillColor=#dae8fc;strokeColor=#6c8ebf;fontSize=16;" parent="1" vertex="1">
                    <mxGeometry x="150" y="128" width="540" height="62" as="geometry"/>
                </mxCell>
                <mxCell id="11" value="" style="edgeStyle=none;html=1;fontSize=16;exitX=0.5;exitY=1;exitDx=0;exitDy=0;strokeColor=#FF66B3;" parent="1" source="5" target="6" edge="1">
                    <mxGeometry relative="1" as="geometry">
                        <mxPoint x="454.60646011865515" y="361.4680290046143" as="sourcePoint"/>
                    </mxGeometry>
                </mxCell>
                <mxCell id="5" value="&lt;span class=&quot;nodeLabel&quot; style=&quot;font-size: 16px;&quot;&gt;Administrator calculates amount of invoice based on &lt;br style=&quot;font-size: 16px;&quot;&gt;customer delivery details of Milk or other products&lt;/span&gt;" style="html=1;dashed=0;whitespace=wrap;fillColor=#dae8fc;strokeColor=#6c8ebf;fontSize=16;" parent="1" vertex="1">
                    <mxGeometry x="200" y="370" width="440" height="50" as="geometry"/>
                </mxCell>
                <mxCell id="15" value="" style="edgeStyle=none;html=1;fontSize=16;strokeColor=#FF66B3;" parent="1" source="6" target="7" edge="1">
                    <mxGeometry relative="1" as="geometry"/>
                </mxCell>
                <mxCell id="6" value="&lt;span class=&quot;nodeLabel&quot; style=&quot;font-size: 16px;&quot;&gt;Administrator prepares invoice receipt mentioning &lt;br style=&quot;font-size: 16px;&quot;&gt;invoice amount with customer subscription &amp;amp; delivery details&lt;/span&gt;" style="html=1;dashed=0;whitespace=wrap;fillColor=#dae8fc;strokeColor=#6c8ebf;fontSize=16;" parent="1" vertex="1">
                    <mxGeometry x="200" y="480" width="440" height="50" as="geometry"/>
                </mxCell>
                <mxCell id="16" value="" style="edgeStyle=none;html=1;fontSize=16;exitX=0.5;exitY=1;exitDx=0;exitDy=0;entryX=0.5;entryY=0.5;entryDx=0;entryDy=-15;entryPerimeter=0;strokeColor=#FF66B3;" parent="1" edge="1" target="8" source="7">
                    <mxGeometry relative="1" as="geometry">
                        <mxPoint x="414.3669724770642" y="660" as="sourcePoint"/>
                        <mxPoint x="414.8623853211009" y="714" as="targetPoint"/>
                    </mxGeometry>
                </mxCell>
                <mxCell id="7" value="&lt;span class=&quot;nodeLabel&quot; style=&quot;font-size: 16px;&quot;&gt;Delivery squad or Administrator shares &lt;br style=&quot;font-size: 16px;&quot;&gt;invoice receipt with customer&lt;/span&gt;" style="shape=parallelogram;perimeter=parallelogramPerimeter;whiteSpace=wrap;html=1;dashed=0;fillColor=#e1d5e7;strokeColor=#9673a6;fontSize=16;" parent="1" vertex="1">
                    <mxGeometry x="185" y="584.5" width="470" height="80" as="geometry"/>
                </mxCell>
                <mxCell id="8" value="Finish" style="html=1;dashed=0;whitespace=wrap;shape=mxgraph.dfd.start;fillColor=#f5f5f5;fontColor=#333333;strokeColor=#666666;fontSize=16;" parent="1" vertex="1">
                    <mxGeometry x="380" y="714" width="80" height="30" as="geometry"/>
                </mxCell>
                <mxCell id="21" value="&lt;span class=&quot;nodeLabel&quot; style=&quot;font-size: 16px;&quot;&gt;Once customer subscription is over, Administrator gets customer &lt;br style=&quot;font-size: 16px;&quot;&gt;delivery details from delivery journal. &lt;br style=&quot;font-size: 16px;&quot;&gt; Delivery details - Customer Number, Milk or other products, &lt;br style=&quot;font-size: 16px;&quot;&gt;Quantity, Price and Date Time&lt;/span&gt;" style="html=1;dashed=0;whitespace=wrap;fillColor=#dae8fc;strokeColor=#6c8ebf;fontSize=16;" vertex="1" parent="1">
                    <mxGeometry x="170" y="238" width="500" height="80" as="geometry"/>
                </mxCell>
                <mxCell id="23" value="" style="edgeStyle=none;html=1;fontSize=16;entryX=0.5;entryY=0;entryDx=0;entryDy=0;strokeColor=#FF66B3;" edge="1" parent="1" source="21" target="5">
                    <mxGeometry relative="1" as="geometry">
                        <mxPoint x="422" y="310" as="sourcePoint"/>
                        <mxPoint x="430" y="248" as="targetPoint"/>
                    </mxGeometry>
                </mxCell>
            </root>
        </mxGraphModel>
    </diagram>
</mxfile>